<?xml version="1.0" encoding="UTF-8"?>
<svg version="1.1" xmlns="http://www.w3.org/2000/svg" width="80" height="80">
<path d="M0 0 C26.4 0 52.8 0 80 0 C80 26.4 80 52.8 80 80 C53.6 80 27.2 80 0 80 C0 53.6 0 27.2 0 0 Z " fill="#1739A0" transform="translate(0,0)"/>
<path d="M0 0 C26.4 0 52.8 0 80 0 C80 11.22 80 22.44 80 34 C78.22821575 31.34232363 77.35253376 29.33980212 76.3125 26.375 C71.97344368 15.43164472 64.75943762 9.84360179 54.8125 4.1875 C44.90606267 0.00478202 32.88558801 1.45924853 23 5 C12.97841896 10.4453999 6.74916311 18.34448378 3 29 C0.35046387 41.76594683 2.33698043 52.77225611 9.34375 63.74609375 C14.68104137 71.00934168 22.65243699 75.71262372 31.375 77.8125 C33.169375 77.9053125 33.169375 77.9053125 35 78 C36.32451172 78.0928125 36.32451172 78.0928125 37.67578125 78.1875 C48.36985381 78.63135256 57.74320782 76.05368953 65.96875 69.03515625 C72.95065559 62.03982392 76.38792239 54.44241719 79 45 C79.33 45 79.66 45 80 45 C80 56.55 80 68.1 80 80 C53.6 80 27.2 80 0 80 C0 53.6 0 27.2 0 0 Z " fill="#F6F7FB" transform="translate(0,0)"/>
<path d="M0 0 C10.56 0 21.12 0 32 0 C32 11.22 32 22.44 32 34 C30.22821575 31.34232363 29.35253376 29.33980212 28.3125 26.375 C24.20239799 16.00908095 17.31777186 9.28073292 7.203125 4.74609375 C4.81714315 3.77889489 2.42604057 2.86101648 0 2 C0 1.34 0 0.68 0 0 Z " fill="#FCFCFD" transform="translate(48,0)"/>
<path d="M0 0 C0 1.65 0 3.3 0 5 C-1.43429001 5.67354499 -2.87257057 6.33859701 -4.3125 7 C-5.11300781 7.37125 -5.91351563 7.7425 -6.73828125 8.125 C-9 9 -9 9 -12 9 C-12 9.66 -12 10.32 -12 11 C-11.30132812 11.20496094 -10.60265625 11.40992188 -9.8828125 11.62109375 C-8.97273438 11.89050781 -8.06265625 12.15992188 -7.125 12.4375 C-6.22007813 12.70433594 -5.31515625 12.97117187 -4.3828125 13.24609375 C-2 14 -2 14 0 15 C0 16.65 0 18.3 0 20 C-6.85618326 18.07443364 -13.43252132 15.7527517 -20 13 C-20 11.02 -20 9.04 -20 7 C-17.04380781 5.8278551 -14.08471211 4.66322524 -11.125 3.5 C-10.28324219 3.16613281 -9.44148438 2.83226562 -8.57421875 2.48828125 C-7.76855469 2.17246094 -6.96289062 1.85664063 -6.1328125 1.53125 C-5.38918457 1.23798828 -4.64555664 0.94472656 -3.87939453 0.64257812 C-2 0 -2 0 0 0 Z " fill="#ECEFF7" transform="translate(57,30)"/>
<path d="M0 0 C9.405 3.465 9.405 3.465 19 7 C19 8.98 19 10.96 19 13 C16.02189259 14.16938366 13.04234409 15.33504963 10.0625 16.5 C9.21236328 16.83386719 8.36222656 17.16773437 7.48632812 17.51171875 C6.67744141 17.82753906 5.86855469 18.14335938 5.03515625 18.46875 C3.91185913 18.90864258 3.91185913 18.90864258 2.76586914 19.35742188 C1 20 1 20 0 20 C0 18.35 0 16.7 0 15 C1.26691507 14.32591692 2.53870749 13.66099503 3.8125 13 C4.52019531 12.62875 5.22789063 12.2575 5.95703125 11.875 C8 11 8 11 11 11 C11 10.34 11 9.68 11 9 C10.37351562 8.86722656 9.74703125 8.73445313 9.1015625 8.59765625 C8.28429688 8.42105469 7.46703125 8.24445312 6.625 8.0625 C5.81289063 7.88847656 5.00078125 7.71445312 4.1640625 7.53515625 C2 7 2 7 0 6 C0 4.02 0 2.04 0 0 Z " fill="#F2F4F9" transform="translate(27,17)"/>
<path d="M0 0 C9.405 3.465 9.405 3.465 19 7 C19 8.98 19 10.96 19 13 C16.02189259 14.16938366 13.04234409 15.33504963 10.0625 16.5 C9.21236328 16.83386719 8.36222656 17.16773437 7.48632812 17.51171875 C6.67744141 17.82753906 5.86855469 18.14335938 5.03515625 18.46875 C3.91185913 18.90864258 3.91185913 18.90864258 2.76586914 19.35742188 C1 20 1 20 0 20 C0 18.35 0 16.7 0 15 C1.26691507 14.32591692 2.53870749 13.66099503 3.8125 13 C4.52019531 12.62875 5.22789063 12.2575 5.95703125 11.875 C8 11 8 11 11 11 C11 10.34 11 9.68 11 9 C10.113125 8.87625 9.22625 8.7525 8.3125 8.625 C5.29612498 8.05587264 2.79673946 7.23385564 0 6 C0 4.02 0 2.04 0 0 Z " fill="#F3F5F9" transform="translate(27,43)"/>
<path d="M0 0 C4.21912747 0.4794463 6.79663178 1.16625119 10 4 C7.03 4 4.06 4 1 4 C1.33 3.01 1.66 2.02 2 1 C1.34 0.67 0.68 0.34 0 0 Z " fill="#0A2798" transform="translate(41,45)"/>
<path d="M0 0 C0 0.66 0 1.32 0 2 C-0.99 2.33 -1.98 2.66 -3 3 C-3.33 3.66 -3.66 4.32 -4 5 C-5.32 4.67 -6.64 4.34 -8 4 C-8 3.34 -8 2.68 -8 2 C-5.09399739 0.74335022 -3.20395416 0 0 0 Z " fill="#2C44A6" transform="translate(53,37)"/>
</svg>
