<?xml version="1.0" standalone="no"?>
<!DOCTYPE svg PUBLIC "-//W3C//DTD SVG 1.0//EN" "http://www.w3.org/TR/2001/REC-SVG-20010904/DTD/svg10.dtd">
<svg width="192" height="33" viewBox="0 0 192 33" fill="none" xmlns="http://www.w3.org/2000/svg">
<path d="M191.991 18.6001C191.963 18.7843 191.935 18.9684 191.899 19.171H184.533C184.459 19.8707 185.039 21.0031 186.089 21.3898C187.212 21.8041 188.768 21.4082 189.348 20.2574L191.475 20.8466C191.245 21.1873 190.996 21.5095 190.729 21.8225C189.984 22.6143 188.989 23.1207 187.912 23.2496C186.623 23.4982 185.288 23.2496 184.174 22.5683C181.881 21.0768 181.237 18.0109 182.729 15.7276C183.483 14.5583 184.699 13.7665 186.071 13.5456C187.958 13.2694 189.652 13.6929 190.904 15.2396C191.512 15.9854 191.871 16.8877 191.954 17.8452C191.954 17.9372 191.991 18.0201 192 18.103V18.6001H191.991ZM184.469 17.615H189.44C189.542 16.3997 188.308 15.2304 186.945 15.2212C185.583 15.212 184.377 16.3997 184.478 17.6058L184.469 17.615Z" fill="#F1F2F4"/>
<path d="M41.4309 10.1481H41.7163C43.8431 10.1481 45.9699 10.1941 48.0967 10.1481C50.0301 10.0928 51.0245 11.4923 51.2546 12.8089C51.4204 13.6743 51.2546 14.5674 50.7851 15.3223C50.5273 15.7551 50.1498 16.1141 49.6987 16.3535C49.6434 16.3903 49.5882 16.4179 49.533 16.4548C49.4777 16.4916 49.5145 16.4732 49.4961 16.5008C49.6342 16.556 49.7723 16.6021 49.9012 16.6665C51.0613 17.1453 51.8255 18.2777 51.8531 19.5299C52.0004 21.6751 50.5181 22.6602 49.0082 23.0009C48.6123 23.0929 48.2072 23.139 47.8021 23.1482C45.7305 23.1666 43.6682 23.1482 41.5966 23.1482H41.4309V10.1573V10.1481ZM43.9352 21.003H44.193C45.3162 21.003 46.4394 20.9753 47.5627 21.003C48.511 21.0398 49.3028 20.3032 49.3396 19.3549C49.3396 19.2813 49.3396 19.2076 49.3396 19.1248C49.312 18.2317 48.5846 17.532 47.6916 17.5412C46.5315 17.578 45.3807 17.5412 44.2206 17.5412H43.9352V21.003ZM43.9168 15.5709H47.2773C48.0506 15.5985 48.7227 15.0369 48.8148 14.2727C48.999 13.2968 48.465 12.2104 47.1852 12.2564C46.2093 12.3025 45.2333 12.2564 44.2298 12.2564C44.015 12.2564 43.9076 12.3639 43.9076 12.5787V15.5709H43.9168Z" fill="#F1F2F4"/>
<path d="M135.065 23.1212H132.643V17.9285C132.643 17.5327 132.597 17.1368 132.505 16.7501C132.385 16.0043 131.676 15.4979 130.931 15.6176C130.811 15.636 130.701 15.6729 130.599 15.7189C129.761 16.0135 129.117 16.704 128.887 17.5603C128.868 17.6523 128.859 17.7536 128.868 17.8549V23.1304H126.456C126.456 23.0107 126.438 22.9003 126.438 22.8082C126.438 21.0221 126.438 19.2267 126.41 17.459C126.41 17.2288 126.373 17.0079 126.309 16.7869C126.088 15.8938 125.397 15.4703 124.514 15.7005C123.538 15.9583 122.958 16.658 122.645 17.5971C122.635 17.68 122.635 17.7628 122.645 17.8457V23.158H120.223V13.6566H122.387V15.323L122.442 15.3414C122.488 15.2862 122.534 15.2309 122.571 15.1665C123.63 13.6105 125.554 13.2607 126.944 13.6105C127.727 13.8131 128.353 14.4023 128.592 15.1757C128.629 15.2586 128.657 15.3414 128.684 15.4243L128.73 15.4427L128.905 15.1941C129.817 13.8775 131.437 13.233 133.002 13.5645C134.061 13.767 134.632 14.4944 134.89 15.4887C135.009 15.9491 135.074 16.4278 135.092 16.9066C135.111 18.9321 135.092 20.9668 135.092 22.9923C135.074 23.0292 135.074 23.066 135.065 23.1396V23.1212Z" fill="#F1F2F4"/>
<path d="M145.91 23.1205H143.489C143.489 23.01 143.47 22.8995 143.47 22.7982C143.47 21.0029 143.47 19.2167 143.452 17.4214C143.452 17.1912 143.406 16.9703 143.351 16.7493C143.222 15.9943 142.504 15.4972 141.749 15.6261C141.675 15.6353 141.592 15.6629 141.519 15.6905C140.626 15.9575 139.935 16.6664 139.696 17.5687C139.677 17.6608 139.677 17.7436 139.696 17.8357V23.1297H137.283V13.6374H139.456V15.3038L139.502 15.3222C139.548 15.267 139.594 15.221 139.631 15.1657C140.58 13.8399 141.915 13.3704 143.47 13.4993C144.566 13.5361 145.487 14.3095 145.726 15.3775C145.726 15.3775 145.745 15.3959 145.781 15.4419L145.947 15.221C146.859 13.8768 148.488 13.2231 150.072 13.5637C151.131 13.7663 151.701 14.4936 151.959 15.488C152.079 15.9483 152.153 16.4271 152.162 16.915C152.18 18.9405 152.162 20.9661 152.162 23.0008V23.1389H149.722V17.9462C149.722 17.5503 149.676 17.1544 149.593 16.7677C149.473 16.0128 148.755 15.5064 148 15.6261C147.871 15.6445 147.752 15.6813 147.632 15.7365C146.803 16.0404 146.177 16.7217 145.938 17.5687C145.919 17.6608 145.91 17.7621 145.919 17.8633V23.1481H145.929L145.91 23.1205Z" fill="#F1F2F4"/>
<path d="M105.621 19.0987L107.573 20.2312C107.361 20.7836 107.011 21.2808 106.569 21.6675C105.557 22.5237 104.304 23.0577 102.988 23.1958C99.4248 23.6285 96.8561 20.9769 96.1471 18.1044C95.3553 14.9464 97.1047 11.4662 100.134 10.4443C102.233 9.73536 104.277 9.90108 106.1 11.3097C106.652 11.7425 107.094 12.3041 107.398 12.9393L105.492 14.2375C105.455 14.1823 105.418 14.1178 105.391 14.0626C104.857 13.013 103.789 12.3409 102.62 12.3041C100.309 12.1107 99.0381 13.7864 98.6698 15.2963C98.2463 16.7878 98.5501 18.3898 99.4984 19.6235C100.705 21.2071 102.96 21.5109 104.544 20.314C104.59 20.2772 104.645 20.2404 104.691 20.1944C105.032 19.8629 105.345 19.4946 105.621 19.1172V19.0987Z" fill="#F1F2F4"/>
<path d="M63.03 19.1809H55.6461C55.554 20.0279 56.3182 21.0591 57.2481 21.3998C58.224 21.768 59.8168 21.4918 60.4521 20.2765H60.5442L62.5236 20.8289C62.4776 20.921 62.4408 21.0039 62.3947 21.0775C61.9804 21.7957 61.3636 22.3757 60.6178 22.7348C59.246 23.4437 57.6348 23.5358 56.1893 23.0018C54.2006 22.302 52.9117 20.3686 53.0314 18.2602C53.105 15.7836 54.7162 13.9146 57.1745 13.5371C58.8869 13.2793 60.4613 13.6015 61.7134 14.8997C62.6986 15.9125 63.1957 17.3027 63.0669 18.7114C63.0576 18.8495 63.0392 18.9968 63.0208 19.1809H63.03ZM55.5909 17.6157H60.5626C60.6639 16.4004 59.4301 15.2312 58.0583 15.222C56.6865 15.2127 55.508 16.4004 55.5909 17.6157Z" fill="#F1F2F4"/>
<path d="M87.8243 19.1811H80.4312C80.3668 20.0834 81.1586 21.1329 82.1437 21.4276C83.2946 21.7866 84.7492 21.3171 85.2464 20.2583L86.2684 20.5345L87.3272 20.8291C87.2811 20.9304 87.2443 21.004 87.1983 21.0777C86.8208 21.7314 86.2776 22.2746 85.6055 22.6337C84.1508 23.4623 82.4015 23.582 80.8455 22.9559C78.9305 22.2194 77.706 20.3227 77.8257 18.2696C77.8993 15.793 79.5197 13.9148 81.978 13.5465C83.847 13.2703 85.541 13.6846 86.7932 15.2221C87.6862 16.3362 88.0637 17.7724 87.8243 19.1719V19.1811ZM85.3569 17.6159C85.3937 16.3178 84.114 15.1485 82.7514 15.2221C81.4348 15.2958 80.2379 16.5019 80.3944 17.6159H85.3569Z" fill="#F1F2F4"/>
<path d="M163.698 19.1807H156.314C156.342 20.1658 156.959 21.0405 157.889 21.3904C158.957 21.777 160.522 21.4456 161.129 20.2579L163.192 20.8287C163.146 20.9208 163.118 21.0037 163.072 21.0773C162.658 21.7955 162.041 22.3755 161.295 22.7346C159.914 23.4435 158.294 23.5448 156.839 23.0016C154.307 22.0164 153.046 19.1531 154.04 16.6212C154.675 14.9916 156.13 13.8131 157.861 13.5461C159.573 13.2975 161.148 13.6198 162.4 14.9271C163.376 15.9307 163.864 17.3117 163.744 18.7019C163.744 18.8585 163.717 19.0058 163.707 19.1899L163.698 19.1807ZM156.259 17.6155H161.231C161.332 16.4002 160.098 15.231 158.736 15.2218C157.373 15.2125 156.167 16.4002 156.268 17.6155H156.259Z" fill="#F1F2F4"/>
<path d="M118.511 17.9475C118.511 20.8292 117.028 22.7351 114.708 23.2046C112.996 23.5453 111.375 23.3059 110.05 22.0722C108.622 20.7464 108.19 19.0523 108.632 17.1925C108.972 15.434 110.326 14.0438 112.075 13.6571C113.327 13.298 114.671 13.4177 115.841 13.9793C117.415 14.6883 118.455 16.2258 118.52 17.9475H118.511ZM116.071 18.417C116.025 18.0672 115.96 17.7173 115.868 17.3675C115.592 16.3915 114.763 15.6734 113.751 15.5537C112.701 15.4432 111.707 16.0233 111.292 16.9992C110.841 17.9199 110.86 18.9879 111.329 19.8993C111.9 21.0962 113.327 21.6026 114.524 21.0318C114.948 20.8292 115.297 20.507 115.546 20.1111C115.868 19.6047 116.043 19.0155 116.071 18.417Z" fill="#F1F2F4"/>
<path d="M180.989 15.9217L178.678 16.6306C178.678 16.6306 178.632 16.6306 178.622 16.603C178.125 15.7836 177.168 15.3785 176.238 15.5902C175.243 15.7375 174.452 16.5017 174.267 17.4868C173.991 18.4075 174.148 19.4019 174.691 20.1936C175.418 21.2893 176.901 21.5931 177.996 20.8565C178.052 20.8197 178.107 20.7737 178.162 20.7369C178.365 20.5527 178.549 20.3502 178.724 20.1384L181.025 20.8381C180.51 22.1363 178.678 23.6554 175.842 23.2687C173.439 22.9557 171.644 20.9026 171.644 18.472C171.597 15.9953 173.236 13.9514 175.547 13.5555C178.355 13.0767 180.298 14.3841 180.989 15.9032V15.9217Z" fill="#F1F2F4"/>
<path d="M65.0833 15.4887H64.0521C63.868 15.4887 63.8127 15.4335 63.8127 15.2493V13.6197H65.0741V10.5078H67.5139V13.6105H69.5394V15.2586C69.5394 15.4427 69.475 15.4979 69.3 15.4887H67.7625C67.5784 15.4887 67.5047 15.5348 67.5047 15.7373V20.083C67.5047 20.8287 67.9558 21.2154 68.6924 21.0865C69.0515 21.0221 69.3921 20.8932 69.7696 20.7919C69.9169 21.3719 70.0734 21.9704 70.2115 22.5688C70.2115 22.6333 70.1747 22.6977 70.1195 22.7253C69.1435 23.1396 68.1308 23.4527 67.0444 23.3054C65.783 23.1304 65.0649 22.3294 65.0649 21.0589V15.4979L65.0833 15.4887Z" fill="#F1F2F4"/>
<path d="M76.5366 13.6008V15.3317C76.5366 15.4974 76.4261 15.479 76.3156 15.479H74.7505C74.5571 15.479 74.5019 15.5434 74.5019 15.7368V20.064C74.5019 20.8282 74.953 21.2148 75.6988 21.0767C76.0578 21.0123 76.3985 20.8834 76.7668 20.7913C76.9141 21.3714 77.0706 21.9606 77.2087 22.5498C77.2087 22.6235 77.1719 22.6879 77.1166 22.7248C76.1407 23.1391 75.1279 23.4429 74.0323 23.2956C72.7802 23.1299 72.0805 22.3197 72.062 21.0491V15.4974H71.0493C70.856 15.4974 70.7915 15.4513 70.7915 15.2488V13.6192H72.0528V10.498H74.4927V13.6008L76.5274 13.6192L76.5366 13.6008Z" fill="#F1F2F4"/>
<path d="M95.1069 15.5806C94.6189 15.6727 94.131 15.7279 93.6798 15.8568C92.9709 16.0133 92.3541 16.4553 91.9674 17.0813C91.8845 17.2194 91.8385 17.3759 91.8385 17.5417V23.121H89.4263V13.6472H91.6451V15.4977C92.4645 14.2272 93.4773 13.3525 95.0977 13.4262V15.599L95.1069 15.5806Z" fill="#F1F2F4"/>
<path d="M165.318 13.6296H167.537V15.4802C168.357 14.2096 169.369 13.335 170.99 13.4086V15.5999C170.566 15.6643 170.143 15.7011 169.728 15.8116C168.955 15.9681 168.283 16.4285 167.869 17.0914C167.786 17.2295 167.74 17.386 167.74 17.5425V23.1219H165.318V13.6296Z" fill="#F1F2F4"/>
<path d="M17.8335 16.714L18.7911 17.0915C20.0064 17.5703 21.2125 18.049 22.4462 18.5186C22.6027 18.5554 22.704 18.7027 22.6764 18.8592C22.6671 19.4024 22.6764 19.9548 22.6764 20.5073C22.6764 20.7374 22.6764 20.7558 22.4554 20.673C19.9879 19.7063 17.5205 18.7487 15.0531 17.782C14.8965 17.7452 14.7953 17.5887 14.8229 17.4322C14.8413 16.9258 14.8229 16.4194 14.8229 15.9038C14.8045 15.7749 14.8781 15.6552 15.007 15.6276C16.8576 14.9095 18.699 14.1821 20.5404 13.464L22.4186 12.7275C22.6579 12.6354 22.6764 12.6446 22.6764 12.8932V14.5596C22.6948 14.6977 22.6027 14.8358 22.4646 14.8542L17.9532 16.622L17.8427 16.668L17.8243 16.714H17.8335Z" fill="#F1F2F4"/>
<path d="M10.7259 25.9667V24.0332C10.7074 23.8859 10.8087 23.757 10.9468 23.7202L15.4674 21.9525L15.5963 21.888C15.4306 21.8144 15.3109 21.7591 15.182 21.7131C13.7641 21.1607 12.3463 20.6083 10.9376 20.0559C10.7995 20.019 10.7074 19.8809 10.7259 19.7428V18.058C10.7259 17.8554 10.7535 17.837 10.9376 17.9107L16.4894 20.0835C17.097 20.3229 17.6955 20.5623 18.3123 20.7924C18.4873 20.8293 18.5977 20.9858 18.5701 21.1607C18.5517 21.6579 18.5701 22.155 18.5701 22.6522C18.5977 22.7903 18.5057 22.9284 18.3676 22.956C16.6643 23.6189 14.9702 24.2818 13.267 24.9539L10.9837 25.847C10.91 25.8746 10.8271 25.9206 10.6982 25.9667H10.7259Z" fill="#F1F2F4"/>
<path d="M15.5963 11.4743L13.8746 10.793C12.8802 10.4063 11.8859 10.0104 10.8916 9.62371C10.8179 9.58688 10.7627 9.51323 10.7442 9.43037V7.53375C10.7442 7.53375 10.7535 7.45089 10.7627 7.41406C10.91 7.47851 11.0481 7.54296 11.1862 7.5982C13.5892 8.5373 15.983 9.4764 18.3767 10.4155C18.5056 10.4523 18.5885 10.5904 18.5609 10.7193V12.2477C18.5793 12.395 18.4872 12.5423 18.3399 12.5791C16.7195 13.2052 15.1083 13.8405 13.4971 14.4757L10.9836 15.4609C10.7627 15.5437 10.735 15.5253 10.7258 15.2859V13.5827C10.7258 13.4354 10.7995 13.3893 10.91 13.3433L12.8618 12.5883L15.4674 11.5756C15.4674 11.5756 15.5318 11.5111 15.5963 11.4835V11.4743Z" fill="#F1F2F4"/>
<path d="M32.2516 14.6602C32.0214 12.6715 31.3953 10.7472 30.4194 8.98873C27.6021 4.04464 23.3485 1.22734 17.6679 0.601276L16.8669 0.518414L15.5227 0.5C15.2557 0.527621 14.9887 0.546034 14.7125 0.582862C8.96742 1.21814 4.69543 4.09068 1.87813 9.12683C0.948237 10.8393 0.358997 12.7083 0.128826 14.6417C0.0827913 14.9916 0.0643776 15.3599 0.036757 15.719C0.0275501 15.8202 -0.00927734 15.9123 -0.00927734 16.0136V17.3578C0.0183433 17.6248 0.0459639 17.8918 0.0643776 18.1588C0.727272 25.4138 6.15932 31.3338 13.3315 32.6228C13.9575 32.7332 14.6112 32.7701 15.2465 32.8437C15.3478 32.8437 15.4306 32.8713 15.5135 32.8806H16.8393C16.9129 32.8621 16.9958 32.8529 17.0695 32.8437C18.0362 32.7977 18.9937 32.6688 19.9328 32.4386C27.9612 30.5236 33.2735 22.8635 32.2332 14.6694L32.2516 14.6602ZM19.4172 30.2014C18.607 30.3947 17.7876 30.5052 16.959 30.5512C16.8945 30.5512 16.8209 30.5696 16.7564 30.5788H15.6148C15.5411 30.5696 15.4675 30.5512 15.3846 30.5512C14.8322 30.4868 14.2798 30.4591 13.7366 30.3579C7.57718 29.253 2.92771 24.1709 2.35689 17.947C2.33847 17.7168 2.31085 17.4867 2.29244 17.2565V16.1056C2.29244 16.0228 2.32006 15.9399 2.32927 15.8478C2.35689 15.544 2.3753 15.231 2.41213 14.9272C2.60547 13.2699 3.11185 11.6679 3.91285 10.1948C6.32505 5.8676 9.98938 3.40937 14.9243 2.85696C15.1544 2.82934 15.3846 2.81092 15.6148 2.79251L16.7748 2.81092L17.4654 2.87537C22.3358 3.40937 25.9909 5.83078 28.4031 10.0751C29.2501 11.5759 29.7841 13.2331 29.9775 14.9456C30.8613 21.9796 26.3132 28.5533 19.4172 30.2014Z" fill="#F1F2F4"/>
</svg>
